<?xml version="1.0" encoding="UTF-8" standalone="no"?>
<!-- Created with Inkscape (http://www.inkscape.org/) -->

<svg
   xmlns:dc="http://purl.org/dc/elements/1.1/"
   xmlns:cc="http://creativecommons.org/ns#"
   xmlns:rdf="http://www.w3.org/1999/02/22-rdf-syntax-ns#"
   xmlns:svg="http://www.w3.org/2000/svg"
   xmlns="http://www.w3.org/2000/svg"
   xmlns:sodipodi="http://sodipodi.sourceforge.net/DTD/sodipodi-0.dtd"
   xmlns:inkscape="http://www.inkscape.org/namespaces/inkscape"
   version="1.1"
   id="svg4824"
   xml:space="preserve"
   width="306.66016"
   height="120"
   viewBox="0 0 306.66015 120"
   sodipodi:docname="dbsmo.ai.svg"
   inkscape:version="0.92.3 (2405546, 2018-03-11)"
   enable-background="new"><metadata
     id="metadata4830"><rdf:RDF><cc:Work
         rdf:about=""><dc:format>image/svg+xml</dc:format><dc:type
           rdf:resource="http://purl.org/dc/dcmitype/StillImage" /><dc:title /></cc:Work></rdf:RDF></metadata><defs
     id="defs4828"><clipPath
       clipPathUnits="userSpaceOnUse"
       id="clipPath4840"><path
         d="M 0,74 H 163 V 0 H 0 Z"
         id="path4838"
         inkscape:connector-curvature="0" /></clipPath><clipPath
       clipPathUnits="userSpaceOnUse"
       id="clipPath4860"><path
         d="M 0,74 H 163 V 0 H 0 Z"
         id="path4858"
         inkscape:connector-curvature="0" /></clipPath><linearGradient
       x1="0"
       y1="0"
       x2="1"
       y2="0"
       gradientUnits="userSpaceOnUse"
       gradientTransform="matrix(-23.421122,-0.0765396,-0.0765396,23.421122,65.587067,21.963551)"
       spreadMethod="pad"
       id="linearGradient4886"><stop
         style="stop-opacity:1;stop-color:#3f6ec1"
         offset="0"
         id="stop4882" /><stop
         style="stop-opacity:1;stop-color:#518df8"
         offset="1"
         id="stop4884" /></linearGradient><clipPath
       clipPathUnits="userSpaceOnUse"
       id="clipPath4896"><path
         d="M 0,74 H 163 V 0 H 0 Z"
         id="path4894"
         inkscape:connector-curvature="0" /></clipPath><linearGradient
       x1="0"
       y1="0"
       x2="1"
       y2="0"
       gradientUnits="userSpaceOnUse"
       gradientTransform="matrix(27.8186,0,0,27.8186,-22.2965,63.7246)"
       spreadMethod="pad"
       id="linearGradient4904"><stop
         style="stop-opacity:1;stop-color:#3f6ec1"
         offset="0"
         id="stop4900" /><stop
         style="stop-opacity:1;stop-color:#518df8"
         offset="1"
         id="stop4902" /></linearGradient></defs><sodipodi:namedview
     pagecolor="#ffffff"
     bordercolor="#666666"
     borderopacity="1"
     objecttolerance="10"
     gridtolerance="10"
     guidetolerance="10"
     inkscape:pageopacity="0"
     inkscape:pageshadow="2"
     inkscape:window-width="1920"
     inkscape:window-height="1017"
     id="namedview4826"
     showgrid="false"
     inkscape:zoom="2.8284271"
     inkscape:cx="59.429494"
     inkscape:cy="-4.458063"
     inkscape:window-x="1912"
     inkscape:window-y="-8"
     inkscape:window-maximized="1"
     inkscape:current-layer="layer2"
     showguides="true"
     fit-margin-top="10"
     fit-margin-right="10"
     fit-margin-bottom="10"
     fit-margin-left="10"
     inkscape:snap-global="false"><inkscape:grid
       type="xygrid"
       id="grid58"
       originx="1.2406673"
       originy="20.093867" /></sodipodi:namedview><g
     id="g4832"
     inkscape:groupmode="layer"
     inkscape:label="text"
     transform="matrix(1.3333333,0,0,-1.3333333,1.2406673,99.906132)"
     style="display:inline"><text
   xml:space="preserve"
   style="font-style:normal;font-variant:normal;font-weight:normal;font-stretch:normal;font-size:29.67338181px;line-height:1.25;font-family:'Copperplate Gothic Bold';-inkscape-font-specification:'Copperplate Gothic Bold, ';letter-spacing:0px;word-spacing:0px;fill:#083b66;fill-opacity:1;stroke:#083b66;stroke-width:0.74183452;stroke-opacity:1"
   x="86.665375"
   y="-15.354733"
   id="text4934"
   transform="scale(1.0110071,-0.98911273)"><tspan
     sodipodi:role="line"
     id="tspan4932"
     x="86.665375"
     y="-15.354733"
     style="font-style:normal;font-variant:normal;font-weight:normal;font-stretch:normal;font-family:'Copperplate Gothic Bold';-inkscape-font-specification:'Copperplate Gothic Bold, ';fill:#083b66;fill-opacity:1;stroke:#083b66;stroke-width:0.74183452;stroke-opacity:1">DbSmo</tspan></text>


<text
   xml:space="preserve"
   style="font-style:normal;font-weight:normal;font-size:30px;line-height:1.25;font-family:sans-serif;letter-spacing:0px;word-spacing:0px;fill:#000000;fill-opacity:1;stroke:none;stroke-width:0.75"
   x="90.810387"
   y="-9.5338974"
   id="text56"
   transform="scale(1,-1)"><tspan
     sodipodi:role="line"
     id="tspan54"
     x="90.810387"
     y="17.836012"
     style="stroke-width:0.75" /></text>


</g><g
     inkscape:groupmode="layer"
     id="layer2"
     inkscape:label="logo"
     style="display:inline"><path
       d="m 106.65584,59.999996 c 0,25.767365 -20.888478,46.655844 -46.655841,46.655844 -25.767364,0 -46.655832,-20.888479 -46.655832,-46.655844 0,-25.767364 20.888468,-46.655831 46.655832,-46.655831 25.767363,0 46.655841,20.888467 46.655841,46.655831"
       style="fill:#083b66;fill-opacity:1;fill-rule:nonzero;stroke:#000000;stroke-width:6.68832922;stroke-miterlimit:4;stroke-dasharray:none;stroke-opacity:1"
       id="path4844"
       inkscape:connector-curvature="0" /><g
       transform="matrix(2.2569287,0,0,-2.7290679,58.714681,59.310667)"
       id="g4924"
       style="display:inline;opacity:1;fill:#cf812c;fill-opacity:1;stroke:#ffa500;stroke-width:2.21539998;stroke-miterlimit:4;stroke-dasharray:none;stroke-opacity:1"><path
         inkscape:connector-curvature="0"
         id="path4926"
         style="fill:#cf812c;fill-opacity:1;stroke:#ffa500;stroke-width:2.21539998;stroke-linecap:round;stroke-linejoin:round;stroke-miterlimit:4;stroke-dasharray:none;stroke-opacity:1"
         d="M 0,0 V 13.799" /></g><g
       style="display:inline;stroke:#ffa500;stroke-width:2.21539998;stroke-miterlimit:4;stroke-dasharray:none;stroke-opacity:1"
       id="g4856"
       clip-path="url(#clipPath4860)"
       transform="matrix(1.8444884,-0.7157168,0.65942331,1.9315139,-50.626863,30.431986)"><g
         style="stroke:#ffa500;stroke-width:2.21539998;stroke-miterlimit:4;stroke-dasharray:none;stroke-opacity:1"
         id="g4862"
         transform="translate(47.0215,18.4543)"><path
           d="m 0,0 c -0.477,-0.048 -0.962,-0.073 -1.452,-0.073 -7.843,0 -14.2,6.357 -14.2,14.2 0,6.241 4.025,11.541 9.621,13.446"
           style="fill:none;stroke:#ffa500;stroke-width:2.21539998;stroke-linecap:round;stroke-linejoin:round;stroke-miterlimit:4;stroke-dasharray:none;stroke-opacity:1"
           id="path4864"
           inkscape:connector-curvature="0" /></g><g
         style="stroke:#ffa500;stroke-width:2.21539998;stroke-miterlimit:4;stroke-dasharray:none;stroke-opacity:1"
         id="g4866"
         transform="translate(40.0289,42.25)"><path
           d="m 0,0 1.571,3.965 -3.85,1.16"
           style="fill:none;stroke:#ffa500;stroke-width:2.21539998;stroke-linecap:round;stroke-linejoin:round;stroke-miterlimit:4;stroke-dasharray:none;stroke-opacity:1"
           id="path4868"
           inkscape:connector-curvature="0" /></g></g><path
       inkscape:connector-curvature="0"
       id="path4930"
       style="display:inline;fill:#ffa500;fill-opacity:1;fill-rule:nonzero;stroke:#ffa500;stroke-width:7.14764309;stroke-miterlimit:4;stroke-dasharray:none;stroke-opacity:1"
       d="m 63.747012,61.32335 c 0,2.429002 -2.19129,4.396066 -4.889573,4.396066 -2.701684,0 -4.892976,-1.967064 -4.892976,-4.396066 0,-2.429001 2.191292,-4.396064 4.892976,-4.396064 2.698283,0 4.889573,1.967063 4.889573,4.396064" /></g><g
     inkscape:groupmode="layer"
     id="layer1"
     inkscape:label="powershell"
     style="display:none"><g
       style="display:inline"
       id="g148"
       transform="matrix(1.797363,0,0,-1.797363,-84.533697,106.46854)"><g
         transform="translate(40.512002,-13.450997)"
         id="g4872"><g
           id="g4878"><g
             id="g4880"><path
               d="m 45.738,32.201 c -0.58,0 -1.086,-0.396 -1.226,-0.96 v 0 L 40.066,13.216 C 39.87,12.419 40.472,11.65 41.292,11.65 v 0 h 20.919 c 0.588,0 1.099,0.406 1.23,0.98 v 0 l 4.144,18.025 c 0.182,0.791 -0.419,1.546 -1.231,1.546 v 0 z"
               style="fill:url(#linearGradient4886);stroke:none"
               id="path4888"
               inkscape:connector-curvature="0" /></g></g></g><g
         transform="translate(102.7106,-1.8498)"
         id="g4898"><path
           inkscape:connector-curvature="0"
           id="path4906"
           style="fill:none;stroke:url(#linearGradient4904);stroke-width:0.23;stroke-linecap:butt;stroke-linejoin:miter;stroke-miterlimit:10;stroke-dasharray:none;stroke-opacity:1"
           d="m 0,0 h -20.918 c -0.82,0 -1.423,0.769 -1.226,1.565 l 4.446,18.025 c 0.139,0.564 0.645,0.961 1.226,0.961 H 4.144 c 0.812,0 1.412,-0.755 1.231,-1.546 L 1.231,0.98 C 1.099,0.406 0.588,0 0,0 Z" /></g><g
         transform="translate(87.040001,0.2406)"
         id="g4908"><path
           inkscape:connector-curvature="0"
           id="path4910"
           style="fill:#3462a8;fill-opacity:1;fill-rule:nonzero;stroke:none"
           d="m 0,0 c -0.391,0 -0.776,0.181 -1.023,0.521 -0.41,0.565 -0.284,1.355 0.28,1.764 l 8.26,5.994 -5.085,5.471 c -0.475,0.511 -0.446,1.31 0.065,1.785 0.511,0.474 1.31,0.445 1.785,-0.066 L 10.338,8.954 C 10.584,8.689 10.705,8.332 10.67,7.972 10.635,7.612 10.448,7.284 10.155,7.072 L 0.741,0.241 C 0.517,0.078 0.257,0 0,0" /></g><g
         transform="translate(86.810401,0.4893)"
         id="g4912"><path
           inkscape:connector-curvature="0"
           id="path4914"
           style="fill:#ffffff;fill-opacity:1;fill-rule:nonzero;stroke:none"
           d="m 0,0 c -0.391,0 -0.776,0.181 -1.023,0.521 -0.41,0.565 -0.284,1.355 0.28,1.764 l 8.26,5.994 -5.085,5.471 c -0.475,0.511 -0.446,1.31 0.065,1.785 0.511,0.474 1.31,0.445 1.785,-0.066 L 10.338,8.954 C 10.584,8.689 10.705,8.332 10.67,7.972 10.635,7.612 10.448,7.284 10.155,7.072 L 0.741,0.241 C 0.517,0.078 0.257,0 0,0" /></g><g
         transform="translate(99.317701,0.7493)"
         id="g4916"><path
           inkscape:connector-curvature="0"
           id="path4918"
           style="fill:#3462a8;fill-opacity:1;fill-rule:nonzero;stroke:none"
           d="m 0,0 h -4.958 c -0.602,0 -1.091,0.488 -1.091,1.091 0,0.602 0.489,1.09 1.091,1.09 H 0 c 0.602,0 1.091,-0.488 1.091,-1.09 C 1.091,0.488 0.602,0 0,0" /></g><g
         transform="translate(99.126301,0.9598)"
         id="g4920"><path
           inkscape:connector-curvature="0"
           id="path4922"
           style="fill:#ffffff;fill-opacity:1;fill-rule:nonzero;stroke:none"
           d="m 0,0 h -4.958 c -0.602,0 -1.091,0.488 -1.091,1.091 0,0.602 0.489,1.09 1.091,1.09 H 0 c 0.602,0 1.091,-0.488 1.091,-1.09 C 1.091,0.488 0.602,0 0,0" /></g></g></g></svg>